<svg xmlns="http://www.w3.org/2000/svg" viewBox="0 0 32 32">
  <defs>
    <linearGradient id="bg" x1="0" y1="0" x2="32" y2="32">
      <stop offset="0%" stop-color="#22D3EE"/>
      <stop offset="100%" stop-color="#2563EB"/>
    </linearGradient>
  </defs>
  <rect width="32" height="32" rx="8" fill="url(#bg)"/>
  <g transform="translate(0 1) scale(0.5)">
    <ellipse cx="32" cy="58" rx="16" ry="3" fill="#FFFFFF" opacity="0.25"/>
    <path d="M11 38 Q3 32 7 24 Q13 30 15 34 Z" fill="#0369A1"/>
    <ellipse cx="29" cy="36" rx="22" ry="14" fill="#E0F2FE"/>
    <ellipse cx="27" cy="40" rx="14" ry="7" fill="#FFFFFF"/>
    <path d="M25 24 Q29 15 33 21 Q29 26 25 24 Z" fill="#0284C7"/>
    <ellipse cx="43" cy="30" rx="10" ry="9" fill="#E0F2FE"/>
    <path d="M49 28 Q57 25 55 32 Q51 34 49 28 Z" fill="#0284C7"/>
    <circle cx="41" cy="28" r="4.2" fill="#1E293B"/>
    <circle cx="42.6" cy="26.4" r="1.6" fill="#FFFFFF"/>
    <circle cx="47" cy="32" r="2.5" fill="#FDA4AF" opacity="0.6"/>
    <circle cx="51" cy="42" r="7" fill="#FBBF24"/>
    <text x="51" y="45" text-anchor="middle" fill="#92400E" font-family="system-ui,sans-serif" font-size="8" font-weight="700">₩</text>
  </g>
</svg>
