<svg xmlns="http://www.w3.org/2000/svg" width="1200" height="630" viewBox="0 0 1200 630">
  <rect width="1200" height="630" fill="#FAFAFA"/>
  <rect x="80" y="80" width="1040" height="470" rx="16" fill="#FFFFFF" stroke="#E5E7EB" stroke-width="1"/>

  <g transform="translate(140 130)">
    <rect width="56" height="56" rx="12" fill="#2563EB"/>
    <g transform="translate(12 12)" fill="#FFFFFF">
      <path d="M5.5 19.2c-.9-4.6 3.2-8.8 8.6-9.4 2.4-.3 4.5-1.7 5.6-3.8 1.2 3 .1 6.4-2.6 8.1-2.4 1.5-5.6 1.6-8.1.3-1.4-.7-2.6.4-3.1 1.6-.7 1.7-2.1 3-3.7 3.2-1.1.1-1.6-.9-1.3-2.4l-.4.4z"/>
      <path d="M13.1 9.8 15.9 6 17.4 10.2z"/>
    </g>
    <text x="76" y="38" fill="#111827" font-family="system-ui,-apple-system,sans-serif" font-size="28" font-weight="600" letter-spacing="-0.02em">돌고래</text>
  </g>

  <text x="140" y="280" fill="#111827" font-family="system-ui,-apple-system,sans-serif" font-size="52" font-weight="700" letter-spacing="-0.03em">Hourly &amp; Salary Calculator</text>
  <text x="140" y="340" fill="#6B7280" font-family="system-ui,-apple-system,sans-serif" font-size="28" letter-spacing="-0.01em">2026 minimum wage and weekly holiday pay</text>
  <text x="140" y="420" fill="#9CA3AF" font-family="system-ui,-apple-system,sans-serif" font-size="22">pay.ehfrhfo.com</text>
</svg>
