<svg xmlns="http://www.w3.org/2000/svg" width="1200" height="630" viewBox="0 0 1200 630">
  <defs>
    <linearGradient id="sky" x1="0" y1="0" x2="0" y2="1">
      <stop offset="0%" stop-color="#E0F2FE"/>
      <stop offset="100%" stop-color="#EFF6FF"/>
    </linearGradient>
    <linearGradient id="wave" x1="0" y1="0" x2="1" y2="0">
      <stop offset="0%" stop-color="#22D3EE"/>
      <stop offset="100%" stop-color="#2563EB"/>
    </linearGradient>
  </defs>
  <rect width="1200" height="630" fill="url(#sky)"/>
  <rect x="60" y="60" width="1080" height="510" rx="32" fill="#FFFFFF"/>
  <rect x="60" y="60" width="1080" height="8" rx="4" fill="url(#wave)"/>

  <g transform="translate(140 130) scale(3.2)">
    <ellipse cx="32" cy="58" rx="20" ry="4" fill="#BAE6FD" opacity="0.55"/>
    <circle cx="17" cy="54" r="2.8" fill="#7DD3FC"/>
    <circle cx="32" cy="52" r="3.8" fill="#38BDF8"/>
    <circle cx="47" cy="54" r="2.2" fill="#7DD3FC"/>
    <path d="M11 38 Q3 32 7 24 Q13 30 15 34 Z" fill="#0284C7"/>
    <path d="M11 42 Q3 48 9 52 Q15 46 13 40 Z" fill="#0369A1"/>
    <ellipse cx="29" cy="36" rx="22" ry="14" fill="#0EA5E9"/>
    <ellipse cx="27" cy="40" rx="16" ry="8" fill="#E0F2FE"/>
    <path d="M25 24 Q29 15 33 21 Q29 26 25 24 Z" fill="#0284C7"/>
    <ellipse cx="37" cy="44" rx="6" ry="3" fill="#0284C7" transform="rotate(-18 37 44)"/>
    <ellipse cx="43" cy="30" rx="10" ry="9" fill="#0EA5E9"/>
    <path d="M49 28 Q57 25 55 32 Q51 34 49 28 Z" fill="#0284C7"/>
    <circle cx="41" cy="28" r="4.2" fill="#1E293B"/>
    <circle cx="42.6" cy="26.4" r="1.6" fill="#FFFFFF"/>
    <circle cx="47" cy="32" r="3" fill="#FDA4AF" opacity="0.55"/>
    <path d="M45 34 Q49 36.5 52 34" stroke="#0369A1" stroke-width="1.3" fill="none" stroke-linecap="round"/>
    <circle cx="51" cy="42" r="8.5" fill="#FBBF24"/>
    <circle cx="51" cy="42" r="6.8" fill="#F59E0B"/>
    <text x="51" y="45.5" text-anchor="middle" fill="#92400E" font-family="system-ui,sans-serif" font-size="9" font-weight="700">₩</text>
  </g>

  <text x="560" y="220" fill="#0891B2" font-family="system-ui,sans-serif" font-size="56" font-weight="800" letter-spacing="6">돌고래</text>
  <text x="560" y="290" fill="#3182F6" font-family="system-ui,sans-serif" font-size="44" font-weight="700">Hourly &amp; Salary Calculator</text>
  <text x="560" y="350" fill="#374151" font-family="system-ui,sans-serif" font-size="28">2026 Minimum Wage · Weekly Holiday Pay</text>
  <text x="560" y="410" fill="#6B7280" font-family="system-ui,sans-serif" font-size="24">pay.ehfrhfo.com</text>
  <rect x="560" y="440" width="360" height="72" rx="36" fill="url(#wave)"/>
  <text x="740" y="488" text-anchor="middle" fill="#FFFFFF" font-family="system-ui,sans-serif" font-size="26" font-weight="600">Free · No install</text>
</svg>
